<?xml version="1.0" encoding="UTF-8" standalone="no"?>
<!DOCTYPE svg PUBLIC "-//W3C//DTD SVG 1.1//EN"
 "http://www.w3.org/Graphics/SVG/1.1/DTD/svg11.dtd">
<!-- Generated by graphviz version 2.42.3 (20191010.1750)
 -->
<!-- Title: snakemake_dag Pages: 1 -->
<svg width="1093pt" height="1628pt"
 viewBox="0.00 0.00 1093.35 1628.00" xmlns="http://www.w3.org/2000/svg" xmlns:xlink="http://www.w3.org/1999/xlink">
<g id="graph0" class="graph" transform="scale(1 1) rotate(0) translate(4 1624)">
<title>snakemake_dag</title>
<polygon fill="white" stroke="transparent" points="-4,4 -4,-1624 1089.35,-1624 1089.35,4 -4,4"/>
<!-- 0 -->
<g id="node1" class="node">
<title>0</title>
<path fill="none" stroke="#80d856" stroke-width="2" d="M630.4,-36C630.4,-36 600.4,-36 600.4,-36 594.4,-36 588.4,-30 588.4,-24 588.4,-24 588.4,-12 588.4,-12 588.4,-6 594.4,0 600.4,0 600.4,0 630.4,0 630.4,0 636.4,0 642.4,-6 642.4,-12 642.4,-12 642.4,-24 642.4,-24 642.4,-30 636.4,-36 630.4,-36"/>
<text text-anchor="middle" x="615.4" y="-15" font-family="sans" font-size="10.00">all</text>
</g>
<!-- 1 -->
<g id="node2" class="node">
<title>1</title>
<path fill="none" stroke="#d8bc56" stroke-width="2" d="M761.45,-180C761.45,-180 679.35,-180 679.35,-180 673.35,-180 667.35,-174 667.35,-168 667.35,-168 667.35,-156 667.35,-156 667.35,-150 673.35,-144 679.35,-144 679.35,-144 761.45,-144 761.45,-144 767.45,-144 773.45,-150 773.45,-156 773.45,-156 773.45,-168 773.45,-168 773.45,-174 767.45,-180 761.45,-180"/>
<text text-anchor="middle" x="720.4" y="-159" font-family="sans" font-size="10.00">normalizeBinShared</text>
</g>
<!-- 1&#45;&gt;0 -->
<g id="edge8" class="edge">
<title>1&#45;&gt;0</title>
<path fill="none" stroke="grey" stroke-width="2" d="M707.74,-143.87C689.45,-119.14 655.51,-73.24 634.27,-44.51"/>
<polygon fill="grey" stroke="grey" stroke-width="2" points="636.87,-42.15 628.11,-36.19 631.25,-46.31 636.87,-42.15"/>
</g>
<!-- 2 -->
<g id="node3" class="node">
<title>2</title>
<path fill="none" stroke="#567bd8" stroke-width="2" d="M452.64,-828C452.64,-828 408.17,-828 408.17,-828 402.17,-828 396.17,-822 396.17,-816 396.17,-816 396.17,-804 396.17,-804 396.17,-798 402.17,-792 408.17,-792 408.17,-792 452.64,-792 452.64,-792 458.64,-792 464.64,-798 464.64,-804 464.64,-804 464.64,-816 464.64,-816 464.64,-822 458.64,-828 452.64,-828"/>
<text text-anchor="middle" x="430.4" y="-807" font-family="sans" font-size="10.00">classifyBins</text>
</g>
<!-- 2&#45;&gt;0 -->
<g id="edge6" class="edge">
<title>2&#45;&gt;0</title>
<path fill="none" stroke="grey" stroke-width="2" d="M419.84,-791.79C404.9,-765.77 379.4,-714.41 379.4,-667 379.4,-667 379.4,-667 379.4,-161 379.4,-69.31 511.8,-35.31 578.26,-24.02"/>
<polygon fill="grey" stroke="grey" stroke-width="2" points="579.02,-27.44 588.33,-22.4 577.9,-20.53 579.02,-27.44"/>
</g>
<!-- 3 -->
<g id="node4" class="node">
<title>3</title>
<path fill="none" stroke="#78d856" stroke-width="2" d="M506.96,-180C506.96,-180 419.85,-180 419.85,-180 413.85,-180 407.85,-174 407.85,-168 407.85,-168 407.85,-156 407.85,-156 407.85,-150 413.85,-144 419.85,-144 419.85,-144 506.96,-144 506.96,-144 512.96,-144 518.96,-150 518.96,-156 518.96,-156 518.96,-168 518.96,-168 518.96,-174 512.96,-180 506.96,-180"/>
<text text-anchor="middle" x="463.4" y="-159" font-family="sans" font-size="10.00">subsampleBinShared</text>
</g>
<!-- 3&#45;&gt;0 -->
<g id="edge1" class="edge">
<title>3&#45;&gt;0</title>
<path fill="none" stroke="grey" stroke-width="2" d="M481.74,-143.87C508.67,-118.71 559.04,-71.65 589.67,-43.04"/>
<polygon fill="grey" stroke="grey" stroke-width="2" points="592.09,-45.57 597,-36.19 587.31,-40.46 592.09,-45.57"/>
</g>
<!-- 4 -->
<g id="node5" class="node">
<title>4</title>
<path fill="none" stroke="#56d89a" stroke-width="2" d="M637.55,-180C637.55,-180 549.26,-180 549.26,-180 543.26,-180 537.26,-174 537.26,-168 537.26,-168 537.26,-156 537.26,-156 537.26,-150 543.26,-144 549.26,-144 549.26,-144 637.55,-144 637.55,-144 643.55,-144 649.55,-150 649.55,-156 649.55,-156 649.55,-168 649.55,-168 649.55,-174 643.55,-180 637.55,-180"/>
<text text-anchor="middle" x="593.4" y="-159" font-family="sans" font-size="10.00">calcBinAlphaDiversity</text>
</g>
<!-- 4&#45;&gt;0 -->
<g id="edge4" class="edge">
<title>4&#45;&gt;0</title>
<path fill="none" stroke="grey" stroke-width="2" d="M596.06,-143.87C599.81,-119.67 606.7,-75.21 611.16,-46.39"/>
<polygon fill="grey" stroke="grey" stroke-width="2" points="614.67,-46.61 612.74,-36.19 607.75,-45.54 614.67,-46.61"/>
</g>
<!-- 5 -->
<g id="node6" class="node">
<title>5</title>
<path fill="none" stroke="#d88556" stroke-width="2" d="M765.76,-108C765.76,-108 715.04,-108 715.04,-108 709.04,-108 703.04,-102 703.04,-96 703.04,-96 703.04,-84 703.04,-84 703.04,-78 709.04,-72 715.04,-72 715.04,-72 765.76,-72 765.76,-72 771.76,-72 777.76,-78 777.76,-84 777.76,-84 777.76,-96 777.76,-96 777.76,-102 771.76,-108 765.76,-108"/>
<text text-anchor="middle" x="740.4" y="-87" font-family="sans" font-size="10.00">calcBinPCoA</text>
</g>
<!-- 5&#45;&gt;0 -->
<g id="edge3" class="edge">
<title>5&#45;&gt;0</title>
<path fill="none" stroke="grey" stroke-width="2" d="M709.83,-71.88C692.19,-62 669.91,-49.52 651.42,-39.17"/>
<polygon fill="grey" stroke="grey" stroke-width="2" points="653.12,-36.11 642.69,-34.28 649.7,-42.22 653.12,-36.11"/>
</g>
<!-- 6 -->
<g id="node7" class="node">
<title>6</title>
<path fill="none" stroke="#a7d856" stroke-width="2" d="M865.08,-108C865.08,-108 811.72,-108 811.72,-108 805.72,-108 799.72,-102 799.72,-96 799.72,-96 799.72,-84 799.72,-84 799.72,-78 805.72,-72 811.72,-72 811.72,-72 865.08,-72 865.08,-72 871.08,-72 877.08,-78 877.08,-84 877.08,-84 877.08,-96 877.08,-96 877.08,-102 871.08,-108 865.08,-108"/>
<text text-anchor="middle" x="838.4" y="-87" font-family="sans" font-size="10.00">calcBinNMDS</text>
</g>
<!-- 6&#45;&gt;0 -->
<g id="edge7" class="edge">
<title>6&#45;&gt;0</title>
<path fill="none" stroke="grey" stroke-width="2" d="M799.52,-76.22C795.1,-74.78 790.66,-73.35 786.4,-72 740.31,-57.32 687.06,-40.9 652.39,-30.28"/>
<polygon fill="grey" stroke="grey" stroke-width="2" points="653.28,-26.9 642.69,-27.32 651.23,-33.59 653.28,-26.9"/>
</g>
<!-- 7 -->
<g id="node8" class="node">
<title>7</title>
<path fill="none" stroke="#d8b456" stroke-width="2" d="M204.72,-1404C204.72,-1404 120.09,-1404 120.09,-1404 114.09,-1404 108.09,-1398 108.09,-1392 108.09,-1392 108.09,-1380 108.09,-1380 108.09,-1374 114.09,-1368 120.09,-1368 120.09,-1368 204.72,-1368 204.72,-1368 210.72,-1368 216.72,-1374 216.72,-1380 216.72,-1380 216.72,-1392 216.72,-1392 216.72,-1398 210.72,-1404 204.72,-1404"/>
<text text-anchor="middle" x="162.4" y="-1383" font-family="sans" font-size="10.00">combineRawReports</text>
</g>
<!-- 7&#45;&gt;0 -->
<g id="edge5" class="edge">
<title>7&#45;&gt;0</title>
<path fill="none" stroke="grey" stroke-width="2" d="M176.61,-1367.86C196.28,-1342.34 229.4,-1292.07 229.4,-1243 229.4,-1243 229.4,-1243 229.4,-161 229.4,-94.24 289.33,-98.96 350.4,-72 426.9,-38.23 525.32,-25.79 578.07,-21.35"/>
<polygon fill="grey" stroke="grey" stroke-width="2" points="578.6,-24.82 588.29,-20.54 578.05,-17.84 578.6,-24.82"/>
</g>
<!-- 8 -->
<g id="node9" class="node">
<title>8</title>
<path fill="none" stroke="#97d856" stroke-width="2" d="M1073.29,-1116C1073.29,-1116 969.51,-1116 969.51,-1116 963.51,-1116 957.51,-1110 957.51,-1104 957.51,-1104 957.51,-1092 957.51,-1092 957.51,-1086 963.51,-1080 969.51,-1080 969.51,-1080 1073.29,-1080 1073.29,-1080 1079.29,-1080 1085.29,-1086 1085.29,-1092 1085.29,-1092 1085.29,-1104 1085.29,-1104 1085.29,-1110 1079.29,-1116 1073.29,-1116"/>
<text text-anchor="middle" x="1021.4" y="-1095" font-family="sans" font-size="10.00">combineTrimmedReports</text>
</g>
<!-- 8&#45;&gt;0 -->
<g id="edge9" class="edge">
<title>8&#45;&gt;0</title>
<path fill="none" stroke="grey" stroke-width="2" d="M1021.4,-1079.95C1021.4,-1053.29 1021.4,-1000.11 1021.4,-955 1021.4,-955 1021.4,-955 1021.4,-161 1021.4,-99.82 971.79,-97.99 916.4,-72 828.22,-30.63 711.73,-21.34 652.87,-19.39"/>
<polygon fill="grey" stroke="grey" stroke-width="2" points="652.67,-15.88 642.57,-19.11 652.47,-22.88 652.67,-15.88"/>
</g>
<!-- 9 -->
<g id="node10" class="node">
<title>9</title>
<path fill="none" stroke="#56d8c9" stroke-width="2" d="M381.12,-1404C381.12,-1404 287.68,-1404 287.68,-1404 281.68,-1404 275.68,-1398 275.68,-1392 275.68,-1392 275.68,-1380 275.68,-1380 275.68,-1374 281.68,-1368 287.68,-1368 287.68,-1368 381.12,-1368 381.12,-1368 387.12,-1368 393.12,-1374 393.12,-1380 393.12,-1380 393.12,-1392 393.12,-1392 393.12,-1398 387.12,-1404 381.12,-1404"/>
<text text-anchor="middle" x="334.4" y="-1383" font-family="sans" font-size="10.00">combineDeconReports</text>
</g>
<!-- 9&#45;&gt;0 -->
<g id="edge10" class="edge">
<title>9&#45;&gt;0</title>
<path fill="none" stroke="grey" stroke-width="2" d="M334.4,-1367.95C334.4,-1341.29 334.4,-1288.11 334.4,-1243 334.4,-1243 334.4,-1243 334.4,-161 334.4,-53.07 501.59,-27.16 578.05,-20.95"/>
<polygon fill="grey" stroke="grey" stroke-width="2" points="578.49,-24.43 588.21,-20.2 577.97,-17.44 578.49,-24.43"/>
</g>
<!-- 10 -->
<g id="node11" class="node">
<title>10</title>
<path fill="none" stroke="#d8c356" stroke-width="2" d="M981.56,-1044C981.56,-1044 873.25,-1044 873.25,-1044 867.25,-1044 861.25,-1038 861.25,-1032 861.25,-1032 861.25,-1020 861.25,-1020 861.25,-1014 867.25,-1008 873.25,-1008 873.25,-1008 981.56,-1008 981.56,-1008 987.56,-1008 993.56,-1014 993.56,-1020 993.56,-1020 993.56,-1032 993.56,-1032 993.56,-1038 987.56,-1044 981.56,-1044"/>
<text text-anchor="middle" x="927.4" y="-1023" font-family="sans" font-size="10.00">combineAssemblyReports</text>
</g>
<!-- 10&#45;&gt;0 -->
<g id="edge2" class="edge">
<title>10&#45;&gt;0</title>
<path fill="none" stroke="grey" stroke-width="2" d="M927.4,-1007.95C927.4,-981.29 927.4,-928.11 927.4,-883 927.4,-883 927.4,-883 927.4,-161 927.4,-117.45 920.64,-98.91 886.4,-72 850.61,-43.87 718.76,-28.31 653.09,-22.15"/>
<polygon fill="grey" stroke="grey" stroke-width="2" points="653.04,-18.63 642.76,-21.21 652.41,-25.6 653.04,-18.63"/>
</g>
<!-- 11 -->
<g id="node12" class="node">
<title>11</title>
<path fill="none" stroke="#8fd856" stroke-width="2" d="M689.06,-324C689.06,-324 625.75,-324 625.75,-324 619.75,-324 613.75,-318 613.75,-312 613.75,-312 613.75,-300 613.75,-300 613.75,-294 619.75,-288 625.75,-288 625.75,-288 689.06,-288 689.06,-288 695.06,-288 701.06,-294 701.06,-300 701.06,-300 701.06,-312 701.06,-312 701.06,-318 695.06,-324 689.06,-324"/>
<text text-anchor="middle" x="657.4" y="-303" font-family="sans" font-size="10.00">makeBinShared</text>
</g>
<!-- 11&#45;&gt;1 -->
<g id="edge12" class="edge">
<title>11&#45;&gt;1</title>
<path fill="none" stroke="grey" stroke-width="2" d="M675.27,-287.9C684.41,-278.19 694.93,-265.34 701.4,-252 710.86,-232.51 715.63,-208.37 718.03,-190.15"/>
<polygon fill="grey" stroke="grey" stroke-width="2" points="721.51,-190.53 719.19,-180.19 714.56,-189.72 721.51,-190.53"/>
</g>
<!-- 13 -->
<g id="node14" class="node">
<title>13</title>
<path fill="none" stroke="#bed856" stroke-width="2" d="M680.89,-252C680.89,-252 623.92,-252 623.92,-252 617.92,-252 611.92,-246 611.92,-240 611.92,-240 611.92,-228 611.92,-228 611.92,-222 617.92,-216 623.92,-216 623.92,-216 680.89,-216 680.89,-216 686.89,-216 692.89,-222 692.89,-228 692.89,-228 692.89,-240 692.89,-240 692.89,-246 686.89,-252 680.89,-252"/>
<text text-anchor="middle" x="652.4" y="-231" font-family="sans" font-size="10.00">splitBinShared</text>
</g>
<!-- 11&#45;&gt;13 -->
<g id="edge30" class="edge">
<title>11&#45;&gt;13</title>
<path fill="none" stroke="grey" stroke-width="2" d="M656.17,-287.7C655.62,-279.98 654.95,-270.71 654.34,-262.11"/>
<polygon fill="grey" stroke="grey" stroke-width="2" points="657.83,-261.83 653.63,-252.1 650.85,-262.33 657.83,-261.83"/>
</g>
<!-- 12 -->
<g id="node13" class="node">
<title>12</title>
<path fill="none" stroke="#56d882" stroke-width="2" d="M690.94,-396C690.94,-396 623.86,-396 623.86,-396 617.86,-396 611.86,-390 611.86,-384 611.86,-384 611.86,-372 611.86,-372 611.86,-366 617.86,-360 623.86,-360 623.86,-360 690.94,-360 690.94,-360 696.94,-360 702.94,-366 702.94,-372 702.94,-372 702.94,-384 702.94,-384 702.94,-390 696.94,-396 690.94,-396"/>
<text text-anchor="middle" x="657.4" y="-375" font-family="sans" font-size="10.00">combineBinStats</text>
</g>
<!-- 12&#45;&gt;1 -->
<g id="edge11" class="edge">
<title>12&#45;&gt;1</title>
<path fill="none" stroke="grey" stroke-width="2" d="M680.41,-359.82C691.27,-350.45 703.35,-337.93 710.4,-324 732.08,-281.16 729.21,-223.49 724.95,-190.07"/>
<polygon fill="grey" stroke="grey" stroke-width="2" points="728.41,-189.53 723.54,-180.12 721.47,-190.51 728.41,-189.53"/>
</g>
<!-- 12&#45;&gt;3 -->
<g id="edge16" class="edge">
<title>12&#45;&gt;3</title>
<path fill="none" stroke="grey" stroke-width="2" d="M632.61,-359.95C619.17,-350.16 602.65,-337.22 589.4,-324 545.77,-280.46 503.35,-221.89 480.58,-188.73"/>
<polygon fill="grey" stroke="grey" stroke-width="2" points="483.21,-186.38 474.69,-180.09 477.43,-190.32 483.21,-186.38"/>
</g>
<!-- 12&#45;&gt;4 -->
<g id="edge18" class="edge">
<title>12&#45;&gt;4</title>
<path fill="none" stroke="grey" stroke-width="2" d="M633.62,-359.82C622.72,-350.54 610.81,-338.1 604.4,-324 584.71,-280.69 586.3,-224 589.61,-190.74"/>
<polygon fill="grey" stroke="grey" stroke-width="2" points="593.13,-190.73 590.77,-180.41 586.17,-189.95 593.13,-190.73"/>
</g>
<!-- 12&#45;&gt;11 -->
<g id="edge28" class="edge">
<title>12&#45;&gt;11</title>
<path fill="none" stroke="grey" stroke-width="2" d="M657.4,-359.7C657.4,-351.98 657.4,-342.71 657.4,-334.11"/>
<polygon fill="grey" stroke="grey" stroke-width="2" points="660.9,-334.1 657.4,-324.1 653.9,-334.1 660.9,-334.1"/>
</g>
<!-- 16 -->
<g id="node17" class="node">
<title>16</title>
<path fill="none" stroke="#5682d8" stroke-width="2" d="M887.05,-180C887.05,-180 803.76,-180 803.76,-180 797.76,-180 791.76,-174 791.76,-168 791.76,-168 791.76,-156 791.76,-156 791.76,-150 797.76,-144 803.76,-144 803.76,-144 887.05,-144 887.05,-144 893.05,-144 899.05,-150 899.05,-156 899.05,-156 899.05,-168 899.05,-168 899.05,-174 893.05,-180 887.05,-180"/>
<text text-anchor="middle" x="845.4" y="-159" font-family="sans" font-size="10.00">calcBinBetaDiversity</text>
</g>
<!-- 12&#45;&gt;16 -->
<g id="edge33" class="edge">
<title>12&#45;&gt;16</title>
<path fill="none" stroke="grey" stroke-width="2" d="M685.83,-359.87C700.36,-350.35 717.81,-337.67 731.4,-324 773.35,-281.83 810.85,-222.78 830.63,-189.16"/>
<polygon fill="grey" stroke="grey" stroke-width="2" points="833.73,-190.79 835.73,-180.39 827.68,-187.27 833.73,-190.79"/>
</g>
<!-- 13&#45;&gt;1 -->
<g id="edge13" class="edge">
<title>13&#45;&gt;1</title>
<path fill="none" stroke="grey" stroke-width="2" d="M669.21,-215.7C677.53,-207.14 687.71,-196.66 696.79,-187.3"/>
<polygon fill="grey" stroke="grey" stroke-width="2" points="699.33,-189.72 703.79,-180.1 694.31,-184.84 699.33,-189.72"/>
</g>
<!-- 13&#45;&gt;3 -->
<g id="edge17" class="edge">
<title>13&#45;&gt;3</title>
<path fill="none" stroke="grey" stroke-width="2" d="M611.86,-217.98C584.75,-207.94 548.73,-194.6 518.96,-183.58"/>
<polygon fill="grey" stroke="grey" stroke-width="2" points="520.12,-180.27 509.53,-180.08 517.69,-186.84 520.12,-180.27"/>
</g>
<!-- 13&#45;&gt;4 -->
<g id="edge19" class="edge">
<title>13&#45;&gt;4</title>
<path fill="none" stroke="grey" stroke-width="2" d="M637.82,-215.7C630.75,-207.3 622.12,-197.07 614.36,-187.86"/>
<polygon fill="grey" stroke="grey" stroke-width="2" points="616.94,-185.49 607.82,-180.1 611.59,-190.01 616.94,-185.49"/>
</g>
<!-- 13&#45;&gt;16 -->
<g id="edge34" class="edge">
<title>13&#45;&gt;16</title>
<path fill="none" stroke="grey" stroke-width="2" d="M692.86,-218.33C720.59,-208.27 757.77,-194.79 788.47,-183.65"/>
<polygon fill="grey" stroke="grey" stroke-width="2" points="789.99,-186.82 798.2,-180.12 787.6,-180.24 789.99,-186.82"/>
</g>
<!-- 14 -->
<g id="node15" class="node">
<title>14</title>
<path fill="none" stroke="#56d863" stroke-width="2" d="M614.16,-900C614.16,-900 574.65,-900 574.65,-900 568.65,-900 562.65,-894 562.65,-888 562.65,-888 562.65,-876 562.65,-876 562.65,-870 568.65,-864 574.65,-864 574.65,-864 614.16,-864 614.16,-864 620.16,-864 626.16,-870 626.16,-876 626.16,-876 626.16,-888 626.16,-888 626.16,-894 620.16,-900 614.16,-900"/>
<text text-anchor="middle" x="594.4" y="-879" font-family="sans" font-size="10.00">binContigs</text>
</g>
<!-- 14&#45;&gt;2 -->
<g id="edge15" class="edge">
<title>14&#45;&gt;2</title>
<path fill="none" stroke="grey" stroke-width="2" d="M562.39,-867.34C537.21,-856.59 501.86,-841.5 474.08,-829.64"/>
<polygon fill="grey" stroke="grey" stroke-width="2" points="475.17,-826.3 464.59,-825.59 472.42,-832.74 475.17,-826.3"/>
</g>
<!-- 41 -->
<g id="node42" class="node">
<title>41</title>
<path fill="none" stroke="#56c9d8" stroke-width="2" d="M630.72,-756C630.72,-756 566.09,-756 566.09,-756 560.09,-756 554.09,-750 554.09,-744 554.09,-744 554.09,-732 554.09,-732 554.09,-726 560.09,-720 566.09,-720 566.09,-720 630.72,-720 630.72,-720 636.72,-720 642.72,-726 642.72,-732 642.72,-732 642.72,-744 642.72,-744 642.72,-750 636.72,-756 630.72,-756"/>
<text text-anchor="middle" x="598.4" y="-735" font-family="sans" font-size="10.00">curateBinLibrary</text>
</g>
<!-- 14&#45;&gt;41 -->
<g id="edge64" class="edge">
<title>14&#45;&gt;41</title>
<path fill="none" stroke="grey" stroke-width="2" d="M594.89,-863.87C595.57,-839.67 596.82,-795.21 597.63,-766.39"/>
<polygon fill="grey" stroke="grey" stroke-width="2" points="601.14,-766.28 597.92,-756.19 594.14,-766.09 601.14,-766.28"/>
</g>
<!-- 43 -->
<g id="node44" class="node">
<title>43</title>
<path fill="none" stroke="#70d856" stroke-width="2" d="M732.58,-828C732.58,-828 634.23,-828 634.23,-828 628.23,-828 622.23,-822 622.23,-816 622.23,-816 622.23,-804 622.23,-804 622.23,-798 628.23,-792 634.23,-792 634.23,-792 732.58,-792 732.58,-792 738.58,-792 744.58,-798 744.58,-804 744.58,-804 744.58,-816 744.58,-816 744.58,-822 738.58,-828 732.58,-828"/>
<text text-anchor="middle" x="683.4" y="-807" font-family="sans" font-size="10.00">detectBinContamination</text>
</g>
<!-- 14&#45;&gt;43 -->
<g id="edge66" class="edge">
<title>14&#45;&gt;43</title>
<path fill="none" stroke="grey" stroke-width="2" d="M616.4,-863.7C627.61,-854.88 641.41,-844.03 653.56,-834.47"/>
<polygon fill="grey" stroke="grey" stroke-width="2" points="655.96,-837.04 661.66,-828.1 651.63,-831.54 655.96,-837.04"/>
</g>
<!-- 15 -->
<g id="node16" class="node">
<title>15</title>
<path fill="none" stroke="#d8d356" stroke-width="2" d="M486.52,-900C486.52,-900 374.28,-900 374.28,-900 368.28,-900 362.28,-894 362.28,-888 362.28,-888 362.28,-876 362.28,-876 362.28,-870 368.28,-864 374.28,-864 374.28,-864 486.52,-864 486.52,-864 492.52,-864 498.52,-870 498.52,-876 498.52,-876 498.52,-888 498.52,-888 498.52,-894 492.52,-900 486.52,-900"/>
<text text-anchor="middle" x="430.4" y="-879" font-family="sans" font-size="10.00">getClassificationDatabases</text>
</g>
<!-- 15&#45;&gt;2 -->
<g id="edge14" class="edge">
<title>15&#45;&gt;2</title>
<path fill="none" stroke="grey" stroke-width="2" d="M430.4,-863.7C430.4,-855.98 430.4,-846.71 430.4,-838.11"/>
<polygon fill="grey" stroke="grey" stroke-width="2" points="433.9,-838.1 430.4,-828.1 426.9,-838.1 433.9,-838.1"/>
</g>
<!-- 16&#45;&gt;5 -->
<g id="edge20" class="edge">
<title>16&#45;&gt;5</title>
<path fill="none" stroke="grey" stroke-width="2" d="M819.72,-143.88C806.12,-134.81 789.23,-123.55 774.54,-113.76"/>
<polygon fill="grey" stroke="grey" stroke-width="2" points="776.45,-110.82 766.19,-108.19 772.57,-116.65 776.45,-110.82"/>
</g>
<!-- 16&#45;&gt;6 -->
<g id="edge21" class="edge">
<title>16&#45;&gt;6</title>
<path fill="none" stroke="grey" stroke-width="2" d="M843.67,-143.7C842.9,-135.98 841.98,-126.71 841.12,-118.11"/>
<polygon fill="grey" stroke="grey" stroke-width="2" points="844.59,-117.71 840.11,-108.1 837.63,-118.4 844.59,-117.71"/>
</g>
<!-- 17 -->
<g id="node18" class="node">
<title>17</title>
<path fill="none" stroke="#56d892" stroke-width="2" d="M216.58,-1476C216.58,-1476 108.23,-1476 108.23,-1476 102.23,-1476 96.23,-1470 96.23,-1464 96.23,-1464 96.23,-1452 96.23,-1452 96.23,-1446 102.23,-1440 108.23,-1440 108.23,-1440 216.58,-1440 216.58,-1440 222.58,-1440 228.58,-1446 228.58,-1452 228.58,-1452 228.58,-1464 228.58,-1464 228.58,-1470 222.58,-1476 216.58,-1476"/>
<text text-anchor="middle" x="162.4" y="-1455" font-family="sans" font-size="10.00">rawContaminantReadMap</text>
</g>
<!-- 17&#45;&gt;7 -->
<g id="edge22" class="edge">
<title>17&#45;&gt;7</title>
<path fill="none" stroke="grey" stroke-width="2" d="M162.4,-1439.7C162.4,-1431.98 162.4,-1422.71 162.4,-1414.11"/>
<polygon fill="grey" stroke="grey" stroke-width="2" points="165.9,-1414.1 162.4,-1404.1 158.9,-1414.1 165.9,-1414.1"/>
</g>
<!-- 18 -->
<g id="node19" class="node">
<title>18</title>
<path fill="none" stroke="#56d8a2" stroke-width="2" d="M66.71,-1476C66.71,-1476 12.1,-1476 12.1,-1476 6.1,-1476 0.1,-1470 0.1,-1464 0.1,-1464 0.1,-1452 0.1,-1452 0.1,-1446 6.1,-1440 12.1,-1440 12.1,-1440 66.71,-1440 66.71,-1440 72.71,-1440 78.71,-1446 78.71,-1452 78.71,-1452 78.71,-1464 78.71,-1464 78.71,-1470 72.71,-1476 66.71,-1476"/>
<text text-anchor="middle" x="39.4" y="-1455" font-family="sans" font-size="10.00">rawReadStats</text>
</g>
<!-- 18&#45;&gt;7 -->
<g id="edge23" class="edge">
<title>18&#45;&gt;7</title>
<path fill="none" stroke="grey" stroke-width="2" d="M69.49,-1439.88C85.72,-1430.64 105.95,-1419.13 123.37,-1409.21"/>
<polygon fill="grey" stroke="grey" stroke-width="2" points="125.24,-1412.18 132.2,-1404.19 121.78,-1406.09 125.24,-1412.18"/>
</g>
<!-- 19 -->
<g id="node20" class="node">
<title>19</title>
<path fill="none" stroke="#afd856" stroke-width="2" d="M868.71,-1548C868.71,-1548 794.1,-1548 794.1,-1548 788.1,-1548 782.1,-1542 782.1,-1536 782.1,-1536 782.1,-1524 782.1,-1524 782.1,-1518 788.1,-1512 794.1,-1512 794.1,-1512 868.71,-1512 868.71,-1512 874.71,-1512 880.71,-1518 880.71,-1524 880.71,-1524 880.71,-1536 880.71,-1536 880.71,-1542 874.71,-1548 868.71,-1548"/>
<text text-anchor="middle" x="831.4" y="-1527" font-family="sans" font-size="10.00">trimmedReadStats</text>
</g>
<!-- 19&#45;&gt;8 -->
<g id="edge24" class="edge">
<title>19&#45;&gt;8</title>
<path fill="none" stroke="grey" stroke-width="2" d="M877.24,-1511.98C925.45,-1490.76 994.4,-1449.49 994.4,-1387 994.4,-1387 994.4,-1387 994.4,-1241 994.4,-1200.5 1005.13,-1154.63 1013.07,-1126.26"/>
<polygon fill="grey" stroke="grey" stroke-width="2" points="1016.53,-1126.87 1015.94,-1116.29 1009.81,-1124.93 1016.53,-1126.87"/>
</g>
<!-- 20 -->
<g id="node21" class="node">
<title>20</title>
<path fill="none" stroke="#c6d856" stroke-width="2" d="M378.21,-1476C378.21,-1476 258.6,-1476 258.6,-1476 252.6,-1476 246.6,-1470 246.6,-1464 246.6,-1464 246.6,-1452 246.6,-1452 246.6,-1446 252.6,-1440 258.6,-1440 258.6,-1440 378.21,-1440 378.21,-1440 384.21,-1440 390.21,-1446 390.21,-1452 390.21,-1452 390.21,-1464 390.21,-1464 390.21,-1470 384.21,-1476 378.21,-1476"/>
<text text-anchor="middle" x="318.4" y="-1455" font-family="sans" font-size="10.00">deconContaminantReadMap</text>
</g>
<!-- 20&#45;&gt;9 -->
<g id="edge25" class="edge">
<title>20&#45;&gt;9</title>
<path fill="none" stroke="grey" stroke-width="2" d="M322.36,-1439.7C324.12,-1431.98 326.24,-1422.71 328.21,-1414.11"/>
<polygon fill="grey" stroke="grey" stroke-width="2" points="331.68,-1414.63 330.49,-1404.1 324.85,-1413.07 331.68,-1414.63"/>
</g>
<!-- 21 -->
<g id="node22" class="node">
<title>21</title>
<path fill="none" stroke="#61d856" stroke-width="2" d="M486.34,-1476C486.34,-1476 420.46,-1476 420.46,-1476 414.46,-1476 408.46,-1470 408.46,-1464 408.46,-1464 408.46,-1452 408.46,-1452 408.46,-1446 414.46,-1440 420.46,-1440 420.46,-1440 486.34,-1440 486.34,-1440 492.34,-1440 498.34,-1446 498.34,-1452 498.34,-1452 498.34,-1464 498.34,-1464 498.34,-1470 492.34,-1476 486.34,-1476"/>
<text text-anchor="middle" x="453.4" y="-1455" font-family="sans" font-size="10.00">deconReadStats</text>
</g>
<!-- 21&#45;&gt;9 -->
<g id="edge26" class="edge">
<title>21&#45;&gt;9</title>
<path fill="none" stroke="grey" stroke-width="2" d="M424.29,-1439.88C408.73,-1430.72 389.38,-1419.34 372.63,-1409.48"/>
<polygon fill="grey" stroke="grey" stroke-width="2" points="374.02,-1406.24 363.63,-1404.19 370.47,-1412.28 374.02,-1406.24"/>
</g>
<!-- 22 -->
<g id="node23" class="node">
<title>22</title>
<path fill="none" stroke="#56b9d8" stroke-width="2" d="M924.93,-1404C924.93,-1404 867.88,-1404 867.88,-1404 861.88,-1404 855.88,-1398 855.88,-1392 855.88,-1392 855.88,-1380 855.88,-1380 855.88,-1374 861.88,-1368 867.88,-1368 867.88,-1368 924.93,-1368 924.93,-1368 930.93,-1368 936.93,-1374 936.93,-1380 936.93,-1380 936.93,-1392 936.93,-1392 936.93,-1398 930.93,-1404 924.93,-1404"/>
<text text-anchor="middle" x="896.4" y="-1383" font-family="sans" font-size="10.00">assemblyStats</text>
</g>
<!-- 22&#45;&gt;10 -->
<g id="edge27" class="edge">
<title>22&#45;&gt;10</title>
<path fill="none" stroke="grey" stroke-width="2" d="M903.08,-1367.81C912.72,-1341.4 929.4,-1289.06 929.4,-1243 929.4,-1243 929.4,-1243 929.4,-1169 929.4,-1128.99 928.6,-1082.65 928.01,-1054.08"/>
<polygon fill="grey" stroke="grey" stroke-width="2" points="931.51,-1053.97 927.8,-1044.05 924.51,-1054.12 931.51,-1053.97"/>
</g>
<!-- 23 -->
<g id="node24" class="node">
<title>23</title>
<path fill="none" stroke="#d89c56" stroke-width="2" d="M696.55,-468C696.55,-468 618.26,-468 618.26,-468 612.26,-468 606.26,-462 606.26,-456 606.26,-456 606.26,-444 606.26,-444 606.26,-438 612.26,-432 618.26,-432 618.26,-432 696.55,-432 696.55,-432 702.55,-432 708.55,-438 708.55,-444 708.55,-444 708.55,-456 708.55,-456 708.55,-462 702.55,-468 696.55,-468"/>
<text text-anchor="middle" x="657.4" y="-447" font-family="sans" font-size="10.00">calcBinRecruitment</text>
</g>
<!-- 23&#45;&gt;12 -->
<g id="edge29" class="edge">
<title>23&#45;&gt;12</title>
<path fill="none" stroke="grey" stroke-width="2" d="M657.4,-431.7C657.4,-423.98 657.4,-414.71 657.4,-406.11"/>
<polygon fill="grey" stroke="grey" stroke-width="2" points="660.9,-406.1 657.4,-396.1 653.9,-406.1 660.9,-406.1"/>
</g>
<!-- 24 -->
<g id="node25" class="node">
<title>24</title>
<path fill="none" stroke="#d87556" stroke-width="2" d="M730.93,-1116C730.93,-1116 657.87,-1116 657.87,-1116 651.87,-1116 645.87,-1110 645.87,-1104 645.87,-1104 645.87,-1092 645.87,-1092 645.87,-1086 651.87,-1080 657.87,-1080 657.87,-1080 730.93,-1080 730.93,-1080 736.93,-1080 742.93,-1086 742.93,-1092 742.93,-1092 742.93,-1104 742.93,-1104 742.93,-1110 736.93,-1116 730.93,-1116"/>
<text text-anchor="middle" x="694.4" y="-1095" font-family="sans" font-size="10.00">curateViralContigs</text>
</g>
<!-- 24&#45;&gt;14 -->
<g id="edge31" class="edge">
<title>24&#45;&gt;14</title>
<path fill="none" stroke="grey" stroke-width="2" d="M692.13,-1079.9C689.39,-1061.71 684.05,-1032.26 675.4,-1008 663.32,-974.11 658.23,-966.02 638.4,-936 632.11,-926.47 624.39,-916.68 617.18,-908.14"/>
<polygon fill="grey" stroke="grey" stroke-width="2" points="619.68,-905.68 610.49,-900.39 614.38,-910.25 619.68,-905.68"/>
</g>
<!-- 35 -->
<g id="node36" class="node">
<title>35</title>
<path fill="none" stroke="#d88d56" stroke-width="2" d="M654.22,-1044C654.22,-1044 604.59,-1044 604.59,-1044 598.59,-1044 592.59,-1038 592.59,-1032 592.59,-1032 592.59,-1020 592.59,-1020 592.59,-1014 598.59,-1008 604.59,-1008 604.59,-1008 654.22,-1008 654.22,-1008 660.22,-1008 666.22,-1014 666.22,-1020 666.22,-1020 666.22,-1032 666.22,-1032 666.22,-1038 660.22,-1044 654.22,-1044"/>
<text text-anchor="middle" x="629.4" y="-1023" font-family="sans" font-size="10.00">indexContigs</text>
</g>
<!-- 24&#45;&gt;35 -->
<g id="edge60" class="edge">
<title>24&#45;&gt;35</title>
<path fill="none" stroke="grey" stroke-width="2" d="M678.34,-1079.7C670.47,-1071.22 660.85,-1060.86 652.23,-1051.58"/>
<polygon fill="grey" stroke="grey" stroke-width="2" points="654.66,-1049.05 645.29,-1044.1 649.53,-1053.81 654.66,-1049.05"/>
</g>
<!-- 25 -->
<g id="node26" class="node">
<title>25</title>
<path fill="none" stroke="#56a2d8" stroke-width="2" d="M617.26,-972C617.26,-972 571.54,-972 571.54,-972 565.54,-972 559.54,-966 559.54,-960 559.54,-960 559.54,-948 559.54,-948 559.54,-942 565.54,-936 571.54,-936 571.54,-936 617.26,-936 617.26,-936 623.26,-936 629.26,-942 629.26,-948 629.26,-948 629.26,-960 629.26,-960 629.26,-966 623.26,-972 617.26,-972"/>
<text text-anchor="middle" x="594.4" y="-951" font-family="sans" font-size="10.00">mapContigs</text>
</g>
<!-- 25&#45;&gt;14 -->
<g id="edge32" class="edge">
<title>25&#45;&gt;14</title>
<path fill="none" stroke="grey" stroke-width="2" d="M594.4,-935.7C594.4,-927.98 594.4,-918.71 594.4,-910.11"/>
<polygon fill="grey" stroke="grey" stroke-width="2" points="597.9,-910.1 594.4,-900.1 590.9,-910.1 597.9,-910.1"/>
</g>
<!-- 26 -->
<g id="node27" class="node">
<title>26</title>
<path fill="none" stroke="#59d856" stroke-width="2" d="M385.1,-1548C385.1,-1548 251.71,-1548 251.71,-1548 245.71,-1548 239.71,-1542 239.71,-1536 239.71,-1536 239.71,-1524 239.71,-1524 239.71,-1518 245.71,-1512 251.71,-1512 251.71,-1512 385.1,-1512 385.1,-1512 391.1,-1512 397.1,-1518 397.1,-1524 397.1,-1524 397.1,-1536 397.1,-1536 397.1,-1542 391.1,-1548 385.1,-1548"/>
<text text-anchor="middle" x="318.4" y="-1527" font-family="sans" font-size="10.00">configureContaminantReadMap</text>
</g>
<!-- 26&#45;&gt;17 -->
<g id="edge35" class="edge">
<title>26&#45;&gt;17</title>
<path fill="none" stroke="grey" stroke-width="2" d="M280.24,-1511.88C259.01,-1502.35 232.4,-1490.41 209.84,-1480.28"/>
<polygon fill="grey" stroke="grey" stroke-width="2" points="211,-1476.97 200.44,-1476.07 208.13,-1483.36 211,-1476.97"/>
</g>
<!-- 26&#45;&gt;20 -->
<g id="edge38" class="edge">
<title>26&#45;&gt;20</title>
<path fill="none" stroke="grey" stroke-width="2" d="M318.4,-1511.7C318.4,-1503.98 318.4,-1494.71 318.4,-1486.11"/>
<polygon fill="grey" stroke="grey" stroke-width="2" points="321.9,-1486.1 318.4,-1476.1 314.9,-1486.1 321.9,-1486.1"/>
</g>
<!-- 27 -->
<g id="node28" class="node">
<title>27</title>
<path fill="none" stroke="#566bd8" stroke-width="2" d="M632.75,-1620C632.75,-1620 582.05,-1620 582.05,-1620 576.05,-1620 570.05,-1614 570.05,-1608 570.05,-1608 570.05,-1596 570.05,-1596 570.05,-1590 576.05,-1584 582.05,-1584 582.05,-1584 632.75,-1584 632.75,-1584 638.75,-1584 644.75,-1590 644.75,-1596 644.75,-1596 644.75,-1608 644.75,-1608 644.75,-1614 638.75,-1620 632.75,-1620"/>
<text text-anchor="middle" x="607.4" y="-1599" font-family="sans" font-size="10.00">trimReadPair</text>
</g>
<!-- 27&#45;&gt;19 -->
<g id="edge36" class="edge">
<title>27&#45;&gt;19</title>
<path fill="none" stroke="grey" stroke-width="2" d="M644.64,-1589.36C679.35,-1578.52 731.69,-1562.16 772.14,-1549.52"/>
<polygon fill="grey" stroke="grey" stroke-width="2" points="773.38,-1552.8 781.88,-1546.48 771.29,-1546.12 773.38,-1552.8"/>
</g>
<!-- 28 -->
<g id="node29" class="node">
<title>28</title>
<path fill="none" stroke="#d85656" stroke-width="2" d="M588.99,-1548C588.99,-1548 463.82,-1548 463.82,-1548 457.82,-1548 451.82,-1542 451.82,-1536 451.82,-1536 451.82,-1524 451.82,-1524 451.82,-1518 457.82,-1512 463.82,-1512 463.82,-1512 588.99,-1512 588.99,-1512 594.99,-1512 600.99,-1518 600.99,-1524 600.99,-1524 600.99,-1536 600.99,-1536 600.99,-1542 594.99,-1548 588.99,-1548"/>
<text text-anchor="middle" x="526.4" y="-1527" font-family="sans" font-size="10.00">decontaminateTrimmedReads</text>
</g>
<!-- 27&#45;&gt;28 -->
<g id="edge49" class="edge">
<title>27&#45;&gt;28</title>
<path fill="none" stroke="grey" stroke-width="2" d="M587.38,-1583.7C577.28,-1574.97 564.87,-1564.24 553.89,-1554.75"/>
<polygon fill="grey" stroke="grey" stroke-width="2" points="556.05,-1551.99 546.2,-1548.1 551.47,-1557.29 556.05,-1551.99"/>
</g>
<!-- 28&#45;&gt;20 -->
<g id="edge37" class="edge">
<title>28&#45;&gt;20</title>
<path fill="none" stroke="grey" stroke-width="2" d="M475.79,-1511.97C446.6,-1502.14 409.71,-1489.73 378.99,-1479.39"/>
<polygon fill="grey" stroke="grey" stroke-width="2" points="379.84,-1475.98 369.25,-1476.11 377.61,-1482.62 379.84,-1475.98"/>
</g>
<!-- 28&#45;&gt;21 -->
<g id="edge39" class="edge">
<title>28&#45;&gt;21</title>
<path fill="none" stroke="grey" stroke-width="2" d="M508.36,-1511.7C499.34,-1503.05 488.29,-1492.45 478.46,-1483.03"/>
<polygon fill="grey" stroke="grey" stroke-width="2" points="480.88,-1480.5 471.24,-1476.1 476.04,-1485.55 480.88,-1480.5"/>
</g>
<!-- 28&#45;&gt;25 -->
<g id="edge47" class="edge">
<title>28&#45;&gt;25</title>
<path fill="none" stroke="grey" stroke-width="2" d="M534.09,-1511.91C545.2,-1485.62 564.4,-1433.45 564.4,-1387 564.4,-1387 564.4,-1387 564.4,-1097 564.4,-1056.16 576.43,-1010.11 585.26,-981.82"/>
<polygon fill="grey" stroke="grey" stroke-width="2" points="588.61,-982.83 588.33,-972.24 581.94,-980.69 588.61,-982.83"/>
</g>
<!-- 29 -->
<g id="node30" class="node">
<title>29</title>
<path fill="none" stroke="#569ad8" stroke-width="2" d="M770.11,-1476C770.11,-1476 706.7,-1476 706.7,-1476 700.7,-1476 694.7,-1470 694.7,-1464 694.7,-1464 694.7,-1452 694.7,-1452 694.7,-1446 700.7,-1440 706.7,-1440 706.7,-1440 770.11,-1440 770.11,-1440 776.11,-1440 782.11,-1446 782.11,-1452 782.11,-1452 782.11,-1464 782.11,-1464 782.11,-1470 776.11,-1476 770.11,-1476"/>
<text text-anchor="middle" x="738.4" y="-1455" font-family="sans" font-size="10.00">assembleReads</text>
</g>
<!-- 28&#45;&gt;29 -->
<g id="edge51" class="edge">
<title>28&#45;&gt;29</title>
<path fill="none" stroke="grey" stroke-width="2" d="M577.99,-1511.97C610.32,-1501.29 651.9,-1487.56 684.63,-1476.76"/>
<polygon fill="grey" stroke="grey" stroke-width="2" points="686.08,-1479.96 694.48,-1473.5 683.89,-1473.32 686.08,-1479.96"/>
</g>
<!-- 30 -->
<g id="node31" class="node">
<title>30</title>
<path fill="none" stroke="#5692d8" stroke-width="2" d="M608.81,-612C608.81,-612 578,-612 578,-612 572,-612 566,-606 566,-600 566,-600 566,-588 566,-588 566,-582 572,-576 578,-576 578,-576 608.81,-576 608.81,-576 614.81,-576 620.81,-582 620.81,-588 620.81,-588 620.81,-600 620.81,-600 620.81,-606 614.81,-612 608.81,-612"/>
<text text-anchor="middle" x="593.4" y="-591" font-family="sans" font-size="10.00">mapBins</text>
</g>
<!-- 28&#45;&gt;30 -->
<g id="edge52" class="edge">
<title>28&#45;&gt;30</title>
<path fill="none" stroke="grey" stroke-width="2" d="M526.4,-1511.95C526.4,-1485.29 526.4,-1432.11 526.4,-1387 526.4,-1387 526.4,-1387 526.4,-737 526.4,-692.73 553.37,-647.47 573.09,-620.3"/>
<polygon fill="grey" stroke="grey" stroke-width="2" points="576.01,-622.25 579.19,-612.14 570.4,-618.05 576.01,-622.25"/>
</g>
<!-- 29&#45;&gt;22 -->
<g id="edge40" class="edge">
<title>29&#45;&gt;22</title>
<path fill="none" stroke="grey" stroke-width="2" d="M777.05,-1439.88C798.65,-1430.31 825.75,-1418.3 848.67,-1408.15"/>
<polygon fill="grey" stroke="grey" stroke-width="2" points="850.15,-1411.32 857.88,-1404.07 847.32,-1404.92 850.15,-1411.32"/>
</g>
<!-- 42 -->
<g id="node43" class="node">
<title>42</title>
<path fill="none" stroke="#d6d856" stroke-width="2" d="M770.11,-1404C770.11,-1404 706.7,-1404 706.7,-1404 700.7,-1404 694.7,-1398 694.7,-1392 694.7,-1392 694.7,-1380 694.7,-1380 694.7,-1374 700.7,-1368 706.7,-1368 706.7,-1368 770.11,-1368 770.11,-1368 776.11,-1368 782.11,-1374 782.11,-1380 782.11,-1380 782.11,-1392 782.11,-1392 782.11,-1398 776.11,-1404 770.11,-1404"/>
<text text-anchor="middle" x="738.4" y="-1383" font-family="sans" font-size="10.00">combineContigs</text>
</g>
<!-- 29&#45;&gt;42 -->
<g id="edge65" class="edge">
<title>29&#45;&gt;42</title>
<path fill="none" stroke="grey" stroke-width="2" d="M738.4,-1439.7C738.4,-1431.98 738.4,-1422.71 738.4,-1414.11"/>
<polygon fill="grey" stroke="grey" stroke-width="2" points="741.9,-1414.1 738.4,-1404.1 734.9,-1414.1 741.9,-1414.1"/>
</g>
<!-- 30&#45;&gt;23 -->
<g id="edge42" class="edge">
<title>30&#45;&gt;23</title>
<path fill="none" stroke="grey" stroke-width="2" d="M594.57,-575.79C596.39,-557.24 600.97,-527.25 612.4,-504 617.41,-493.82 624.8,-483.97 632.16,-475.59"/>
<polygon fill="grey" stroke="grey" stroke-width="2" points="634.92,-477.76 639.12,-468.03 629.77,-473.01 634.92,-477.76"/>
</g>
<!-- 31 -->
<g id="node32" class="node">
<title>31</title>
<path fill="none" stroke="#56d87b" stroke-width="2" d="M683.82,-540C683.82,-540 632.98,-540 632.98,-540 626.98,-540 620.98,-534 620.98,-528 620.98,-528 620.98,-516 620.98,-516 620.98,-510 626.98,-504 632.98,-504 632.98,-504 683.82,-504 683.82,-504 689.82,-504 695.82,-510 695.82,-516 695.82,-516 695.82,-528 695.82,-528 695.82,-534 689.82,-540 683.82,-540"/>
<text text-anchor="middle" x="658.4" y="-519" font-family="sans" font-size="10.00">indexBinBam</text>
</g>
<!-- 30&#45;&gt;31 -->
<g id="edge54" class="edge">
<title>30&#45;&gt;31</title>
<path fill="none" stroke="grey" stroke-width="2" d="M609.47,-575.7C617.34,-567.22 626.96,-556.86 635.58,-547.58"/>
<polygon fill="grey" stroke="grey" stroke-width="2" points="638.28,-549.81 642.52,-540.1 633.15,-545.05 638.28,-549.81"/>
</g>
<!-- 31&#45;&gt;23 -->
<g id="edge41" class="edge">
<title>31&#45;&gt;23</title>
<path fill="none" stroke="grey" stroke-width="2" d="M658.16,-503.7C658.05,-495.98 657.91,-486.71 657.79,-478.11"/>
<polygon fill="grey" stroke="grey" stroke-width="2" points="661.29,-478.05 657.65,-468.1 654.29,-478.15 661.29,-478.05"/>
</g>
<!-- 32 -->
<g id="node33" class="node">
<title>32</title>
<path fill="none" stroke="#56d8d0" stroke-width="2" d="M760.7,-1260C760.7,-1260 716.11,-1260 716.11,-1260 710.11,-1260 704.11,-1254 704.11,-1248 704.11,-1248 704.11,-1236 704.11,-1236 704.11,-1230 710.11,-1224 716.11,-1224 716.11,-1224 760.7,-1224 760.7,-1224 766.7,-1224 772.7,-1230 772.7,-1236 772.7,-1236 772.7,-1248 772.7,-1248 772.7,-1254 766.7,-1260 760.7,-1260"/>
<text text-anchor="middle" x="738.4" y="-1239" font-family="sans" font-size="10.00">filterContigs</text>
</g>
<!-- 32&#45;&gt;24 -->
<g id="edge43" class="edge">
<title>32&#45;&gt;24</title>
<path fill="none" stroke="grey" stroke-width="2" d="M735.65,-1223.99C732.47,-1205.87 726.6,-1176.48 718.4,-1152 715.45,-1143.19 711.52,-1133.86 707.7,-1125.54"/>
<polygon fill="grey" stroke="grey" stroke-width="2" points="710.77,-1123.84 703.32,-1116.31 704.45,-1126.84 710.77,-1123.84"/>
</g>
<!-- 33 -->
<g id="node34" class="node">
<title>33</title>
<path fill="none" stroke="#56d86b" stroke-width="2" d="M870.93,-1188C870.93,-1188 777.87,-1188 777.87,-1188 771.87,-1188 765.87,-1182 765.87,-1176 765.87,-1176 765.87,-1164 765.87,-1164 765.87,-1158 771.87,-1152 777.87,-1152 777.87,-1152 870.93,-1152 870.93,-1152 876.93,-1152 882.93,-1158 882.93,-1164 882.93,-1164 882.93,-1176 882.93,-1176 882.93,-1182 876.93,-1188 870.93,-1188"/>
<text text-anchor="middle" x="824.4" y="-1167" font-family="sans" font-size="10.00">predictContigsVirsorter</text>
</g>
<!-- 32&#45;&gt;33 -->
<g id="edge56" class="edge">
<title>32&#45;&gt;33</title>
<path fill="none" stroke="grey" stroke-width="2" d="M759.66,-1223.7C770.49,-1214.88 783.82,-1204.03 795.56,-1194.47"/>
<polygon fill="grey" stroke="grey" stroke-width="2" points="797.84,-1197.13 803.39,-1188.1 793.42,-1191.7 797.84,-1197.13"/>
</g>
<!-- 34 -->
<g id="node35" class="node">
<title>34</title>
<path fill="none" stroke="#d8a456" stroke-width="2" d="M697.89,-1188C697.89,-1188 604.92,-1188 604.92,-1188 598.92,-1188 592.92,-1182 592.92,-1176 592.92,-1176 592.92,-1164 592.92,-1164 592.92,-1158 598.92,-1152 604.92,-1152 604.92,-1152 697.89,-1152 697.89,-1152 703.89,-1152 709.89,-1158 709.89,-1164 709.89,-1164 709.89,-1176 709.89,-1176 709.89,-1182 703.89,-1188 697.89,-1188"/>
<text text-anchor="middle" x="651.4" y="-1167" font-family="sans" font-size="10.00">predictContigsVirfinder</text>
</g>
<!-- 32&#45;&gt;34 -->
<g id="edge58" class="edge">
<title>32&#45;&gt;34</title>
<path fill="none" stroke="grey" stroke-width="2" d="M716.9,-1223.7C705.94,-1214.88 692.46,-1204.03 680.58,-1194.47"/>
<polygon fill="grey" stroke="grey" stroke-width="2" points="682.65,-1191.65 672.66,-1188.1 678.26,-1197.1 682.65,-1191.65"/>
</g>
<!-- 33&#45;&gt;24 -->
<g id="edge45" class="edge">
<title>33&#45;&gt;24</title>
<path fill="none" stroke="grey" stroke-width="2" d="M792.6,-1151.88C775.29,-1142.55 753.68,-1130.92 735.15,-1120.94"/>
<polygon fill="grey" stroke="grey" stroke-width="2" points="736.79,-1117.85 726.33,-1116.19 733.47,-1124.01 736.79,-1117.85"/>
</g>
<!-- 34&#45;&gt;24 -->
<g id="edge44" class="edge">
<title>34&#45;&gt;24</title>
<path fill="none" stroke="grey" stroke-width="2" d="M662.03,-1151.7C667.03,-1143.56 673.09,-1133.69 678.62,-1124.7"/>
<polygon fill="grey" stroke="grey" stroke-width="2" points="681.64,-1126.46 683.9,-1116.1 675.68,-1122.79 681.64,-1126.46"/>
</g>
<!-- 35&#45;&gt;25 -->
<g id="edge46" class="edge">
<title>35&#45;&gt;25</title>
<path fill="none" stroke="grey" stroke-width="2" d="M620.75,-1007.7C616.77,-999.73 611.95,-990.1 607.54,-981.26"/>
<polygon fill="grey" stroke="grey" stroke-width="2" points="610.56,-979.48 602.96,-972.1 604.3,-982.61 610.56,-979.48"/>
</g>
<!-- 36 -->
<g id="node37" class="node">
<title>36</title>
<path fill="none" stroke="#56d0d8" stroke-width="2" d="M494.92,-1620C494.92,-1620 393.89,-1620 393.89,-1620 387.89,-1620 381.89,-1614 381.89,-1608 381.89,-1608 381.89,-1596 381.89,-1596 381.89,-1590 387.89,-1584 393.89,-1584 393.89,-1584 494.92,-1584 494.92,-1584 500.92,-1584 506.92,-1590 506.92,-1596 506.92,-1596 506.92,-1608 506.92,-1608 506.92,-1614 500.92,-1620 494.92,-1620"/>
<text text-anchor="middle" x="444.4" y="-1599" font-family="sans" font-size="10.00">buildContaminantIndices</text>
</g>
<!-- 36&#45;&gt;26 -->
<g id="edge48" class="edge">
<title>36&#45;&gt;26</title>
<path fill="none" stroke="grey" stroke-width="2" d="M413.58,-1583.88C396.95,-1574.64 376.24,-1563.13 358.38,-1553.21"/>
<polygon fill="grey" stroke="grey" stroke-width="2" points="359.79,-1549.99 349.35,-1548.19 356.39,-1556.11 359.79,-1549.99"/>
</g>
<!-- 36&#45;&gt;28 -->
<g id="edge50" class="edge">
<title>36&#45;&gt;28</title>
<path fill="none" stroke="grey" stroke-width="2" d="M464.67,-1583.7C474.9,-1574.97 487.46,-1564.24 498.58,-1554.75"/>
<polygon fill="grey" stroke="grey" stroke-width="2" points="501.03,-1557.26 506.37,-1548.1 496.49,-1551.94 501.03,-1557.26"/>
</g>
<!-- 37 -->
<g id="node38" class="node">
<title>37</title>
<path fill="none" stroke="#d86e56" stroke-width="2" d="M614.26,-684C614.26,-684 578.54,-684 578.54,-684 572.54,-684 566.54,-678 566.54,-672 566.54,-672 566.54,-660 566.54,-660 566.54,-654 572.54,-648 578.54,-648 578.54,-648 614.26,-648 614.26,-648 620.26,-648 626.26,-654 626.26,-660 626.26,-660 626.26,-672 626.26,-672 626.26,-678 620.26,-684 614.26,-684"/>
<text text-anchor="middle" x="596.4" y="-663" font-family="sans" font-size="10.00">indexBins</text>
</g>
<!-- 37&#45;&gt;30 -->
<g id="edge53" class="edge">
<title>37&#45;&gt;30</title>
<path fill="none" stroke="grey" stroke-width="2" d="M595.66,-647.7C595.33,-639.98 594.93,-630.71 594.57,-622.11"/>
<polygon fill="grey" stroke="grey" stroke-width="2" points="598.06,-621.95 594.14,-612.1 591.07,-622.25 598.06,-621.95"/>
</g>
<!-- 38 -->
<g id="node39" class="node">
<title>38</title>
<path fill="none" stroke="#d85e56" stroke-width="2" d="M768.18,-1332C768.18,-1332 708.63,-1332 708.63,-1332 702.63,-1332 696.63,-1326 696.63,-1320 696.63,-1320 696.63,-1308 696.63,-1308 696.63,-1302 702.63,-1296 708.63,-1296 708.63,-1296 768.18,-1296 768.18,-1296 774.18,-1296 780.18,-1302 780.18,-1308 780.18,-1308 780.18,-1320 780.18,-1320 780.18,-1326 774.18,-1332 768.18,-1332"/>
<text text-anchor="middle" x="738.4" y="-1311" font-family="sans" font-size="10.00">dedupeContigs</text>
</g>
<!-- 38&#45;&gt;32 -->
<g id="edge55" class="edge">
<title>38&#45;&gt;32</title>
<path fill="none" stroke="grey" stroke-width="2" d="M738.4,-1295.7C738.4,-1287.98 738.4,-1278.71 738.4,-1270.11"/>
<polygon fill="grey" stroke="grey" stroke-width="2" points="741.9,-1270.1 738.4,-1260.1 734.9,-1270.1 741.9,-1270.1"/>
</g>
<!-- 39 -->
<g id="node40" class="node">
<title>39</title>
<path fill="none" stroke="#56d8b9" stroke-width="2" d="M889.72,-1260C889.72,-1260 803.09,-1260 803.09,-1260 797.09,-1260 791.09,-1254 791.09,-1248 791.09,-1248 791.09,-1236 791.09,-1236 791.09,-1230 797.09,-1224 803.09,-1224 803.09,-1224 889.72,-1224 889.72,-1224 895.72,-1224 901.72,-1230 901.72,-1236 901.72,-1236 901.72,-1248 901.72,-1248 901.72,-1254 895.72,-1260 889.72,-1260"/>
<text text-anchor="middle" x="846.4" y="-1239" font-family="sans" font-size="10.00">getVirsorterDatabase</text>
</g>
<!-- 39&#45;&gt;33 -->
<g id="edge57" class="edge">
<title>39&#45;&gt;33</title>
<path fill="none" stroke="grey" stroke-width="2" d="M840.97,-1223.7C838.51,-1215.9 835.56,-1206.51 832.84,-1197.83"/>
<polygon fill="grey" stroke="grey" stroke-width="2" points="836.12,-1196.59 829.78,-1188.1 829.44,-1198.69 836.12,-1196.59"/>
</g>
<!-- 40 -->
<g id="node41" class="node">
<title>40</title>
<path fill="none" stroke="#56b1d8" stroke-width="2" d="M674.6,-1260C674.6,-1260 604.21,-1260 604.21,-1260 598.21,-1260 592.21,-1254 592.21,-1248 592.21,-1248 592.21,-1236 592.21,-1236 592.21,-1230 598.21,-1224 604.21,-1224 604.21,-1224 674.6,-1224 674.6,-1224 680.6,-1224 686.6,-1230 686.6,-1236 686.6,-1236 686.6,-1248 686.6,-1248 686.6,-1254 680.6,-1260 674.6,-1260"/>
<text text-anchor="middle" x="639.4" y="-1239" font-family="sans" font-size="10.00">getVirfinderModel</text>
</g>
<!-- 40&#45;&gt;34 -->
<g id="edge59" class="edge">
<title>40&#45;&gt;34</title>
<path fill="none" stroke="grey" stroke-width="2" d="M642.37,-1223.7C643.69,-1215.98 645.28,-1206.71 646.76,-1198.11"/>
<polygon fill="grey" stroke="grey" stroke-width="2" points="650.23,-1198.55 648.47,-1188.1 643.33,-1197.37 650.23,-1198.55"/>
</g>
<!-- 41&#45;&gt;37 -->
<g id="edge61" class="edge">
<title>41&#45;&gt;37</title>
<path fill="none" stroke="grey" stroke-width="2" d="M597.91,-719.7C597.69,-711.98 597.42,-702.71 597.18,-694.11"/>
<polygon fill="grey" stroke="grey" stroke-width="2" points="600.68,-694 596.89,-684.1 593.68,-694.2 600.68,-694"/>
</g>
<!-- 42&#45;&gt;38 -->
<g id="edge62" class="edge">
<title>42&#45;&gt;38</title>
<path fill="none" stroke="grey" stroke-width="2" d="M738.4,-1367.7C738.4,-1359.98 738.4,-1350.71 738.4,-1342.11"/>
<polygon fill="grey" stroke="grey" stroke-width="2" points="741.9,-1342.1 738.4,-1332.1 734.9,-1342.1 741.9,-1342.1"/>
</g>
<!-- 43&#45;&gt;41 -->
<g id="edge63" class="edge">
<title>43&#45;&gt;41</title>
<path fill="none" stroke="grey" stroke-width="2" d="M662.39,-791.7C651.69,-782.88 638.51,-772.03 626.91,-762.47"/>
<polygon fill="grey" stroke="grey" stroke-width="2" points="629.12,-759.76 619.17,-756.1 624.67,-765.16 629.12,-759.76"/>
</g>
<!-- 44 -->
<g id="node45" class="node">
<title>44</title>
<path fill="none" stroke="#5663d8" stroke-width="2" d="M712.93,-900C712.93,-900 655.88,-900 655.88,-900 649.88,-900 643.88,-894 643.88,-888 643.88,-888 643.88,-876 643.88,-876 643.88,-870 649.88,-864 655.88,-864 655.88,-864 712.93,-864 712.93,-864 718.93,-864 724.93,-870 724.93,-876 724.93,-876 724.93,-888 724.93,-888 724.93,-894 718.93,-900 712.93,-900"/>
<text text-anchor="middle" x="684.4" y="-879" font-family="sans" font-size="10.00">getMarkerSets</text>
</g>
<!-- 44&#45;&gt;43 -->
<g id="edge67" class="edge">
<title>44&#45;&gt;43</title>
<path fill="none" stroke="grey" stroke-width="2" d="M684.16,-863.7C684.05,-855.98 683.91,-846.71 683.79,-838.11"/>
<polygon fill="grey" stroke="grey" stroke-width="2" points="687.29,-838.05 683.65,-828.1 680.29,-838.15 687.29,-838.05"/>
</g>
</g>
</svg>
